# MagicaVoxel @ Ephtracy

# group
o 

# material
mtllib Target3.mtl
usemtl palette

# normals
vn -1 0 0
vn 1 0 0
vn 0 0 1
vn 0 0 -1
vn 0 -1 0
vn 0 1 0

# texcoords
vt 0.306641 0.5
vt 0.740234 0.5
vt 0.744141 0.5
vt 0.748047 0.5
vt 0.841797 0.5
vt 0.958984 0.5
vt 0.978516 0.5
vt 0.990234 0.5

# verts
v -1.6 0 1.6
v -1.6 0 -1.6
v -1.6 0.3 0.9
v -1.6 0.3 -0.9
v -1.6 0.4 1.2
v -1.6 0.4 0.9
v -1.6 0.4 -0.9
v -1.6 0.4 -1.2
v -1.6 0.7 1.3
v -1.6 0.7 1.2
v -1.6 0.7 -1.2
v -1.6 0.7 -1.3
v -1.6 2.5 1.3
v -1.6 2.5 1.2
v -1.6 2.5 -1.2
v -1.6 2.5 -1.3
v -1.6 2.8 1.2
v -1.6 2.8 0.9
v -1.6 2.8 -0.9
v -1.6 2.8 -1.2
v -1.6 2.9 0.9
v -1.6 2.9 -0.9
v -1.6 3.2 1.6
v -1.6 3.2 -1.6
v 1.5 3 1.3
v 1.5 3 0.8
v 1.5 3.1 1.3
v 1.5 3.1 0.8
v 1.4 3 1.3
v 1.4 3 0.8
v 1.4 3.1 1.3
v 1.4 3.1 0.8
v 1.6 0 1.6
v 1.6 0 -1.6
v 1.6 0.3 0.9
v 1.6 0.3 -0.9
v 1.6 0.4 1.2
v 1.6 0.4 0.9
v 1.6 0.4 -0.9
v 1.6 0.4 -1.2
v 1.6 0.5 0.9
v 1.6 0.5 0.5
v 1.6 0.6 1
v 1.6 0.6 0.9
v 1.6 0.6 0.5
v 1.6 0.6 0.4
v 1.6 0.7 1.3
v 1.6 0.7 1.2
v 1.6 0.7 1.1
v 1.6 0.7 1
v 1.6 0.7 0.9
v 1.6 0.7 0.6
v 1.6 0.7 0.5
v 1.6 0.7 0.4
v 1.6 0.7 0.3
v 1.6 0.7 -1.2
v 1.6 0.7 -1.3
v 1.6 0.8 0.6
v 1.6 0.8 0.5
v 1.6 1 0.9
v 1.6 1 0.8
v 1.6 1.1 1.1
v 1.6 1.1 1
v 1.6 1.1 0.9
v 1.6 1.1 0.8
v 1.6 1.1 0.5
v 1.6 1.1 0.4
v 1.6 1.1 0.3
v 1.6 1.2 1
v 1.6 1.2 0.9
v 1.6 1.2 0.5
v 1.6 1.2 0.4
v 1.6 1.2 0.2
v 1.6 1.2 -0.2
v 1.6 1.3 0.9
v 1.6 1.3 0.5
v 1.6 1.3 0.3
v 1.6 1.3 0.2
v 1.6 1.3 -0.2
v 1.6 1.3 -0.3
v 1.6 1.4 0.4
v 1.6 1.4 0.3
v 1.6 1.4 0.2
v 1.6 1.4 -0.1
v 1.6 1.4 -0.2
v 1.6 1.4 -0.3
v 1.6 1.4 -0.4
v 1.6 1.5 -0.1
v 1.6 1.5 -0.2
v 1.6 1.7 0.2
v 1.6 1.7 0.1
v 1.6 1.8 0.4
v 1.6 1.8 0.3
v 1.6 1.8 0.2
v 1.6 1.8 0.1
v 1.6 1.8 -0.2
v 1.6 1.8 -0.3
v 1.6 1.8 -0.4
v 1.6 1.9 0.3
v 1.6 1.9 0.2
v 1.6 1.9 -0.2
v 1.6 1.9 -0.3
v 1.6 1.9 -0.5
v 1.6 1.9 -0.9
v 1.6 2 0.2
v 1.6 2 -0.2
v 1.6 2 -0.4
v 1.6 2 -0.5
v 1.6 2 -0.9
v 1.6 2 -1
v 1.6 2.1 -0.3
v 1.6 2.1 -0.4
v 1.6 2.1 -0.5
v 1.6 2.1 -0.8
v 1.6 2.1 -0.9
v 1.6 2.1 -1
v 1.6 2.1 -1.1
v 1.6 2.2 -0.8
v 1.6 2.2 -0.9
v 1.6 2.4 -0.5
v 1.6 2.4 -0.6
v 1.6 2.5 1.3
v 1.6 2.5 1.2
v 1.6 2.5 -0.3
v 1.6 2.5 -0.4
v 1.6 2.5 -0.5
v 1.6 2.5 -0.6
v 1.6 2.5 -0.9
v 1.6 2.5 -1
v 1.6 2.5 -1.1
v 1.6 2.5 -1.2
v 1.6 2.5 -1.3
v 1.6 2.6 -0.4
v 1.6 2.6 -0.5
v 1.6 2.6 -0.9
v 1.6 2.6 -1
v 1.6 2.7 -0.5
v 1.6 2.7 -0.9
v 1.6 2.8 1.2
v 1.6 2.8 0.9
v 1.6 2.8 -0.9
v 1.6 2.8 -1.2
v 1.6 2.9 0.9
v 1.6 2.9 -0.9
v 1.6 3.2 1.6
v 1.6 3.2 -1.6
v -1.6 0 1.6
v -1.6 3.2 1.6
v -1.3 0.7 1.6
v -1.3 2.5 1.6
v -1.2 0.4 1.6
v -1.2 0.7 1.6
v -1.2 2.5 1.6
v -1.2 2.8 1.6
v -0.9 0.3 1.6
v -0.9 0.4 1.6
v -0.9 2.8 1.6
v -0.9 2.9 1.6
v 0.9 0.3 1.6
v 0.9 0.4 1.6
v 0.9 2.8 1.6
v 0.9 2.9 1.6
v 1.2 0.4 1.6
v 1.2 0.7 1.6
v 1.2 2.5 1.6
v 1.2 2.8 1.6
v 1.3 0.7 1.6
v 1.3 2.5 1.6
v 1.6 0 1.6
v 1.6 3.2 1.6
v 1.4 3 0.8
v 1.4 3.1 0.8
v 1.5 3 0.8
v 1.5 3.1 0.8
v 1.4 3 1.3
v 1.4 3.1 1.3
v 1.5 3 1.3
v 1.5 3.1 1.3
v -1.6 0 -1.6
v -1.6 3.2 -1.6
v -1.3 0.7 -1.6
v -1.3 2.5 -1.6
v -1.2 0.4 -1.6
v -1.2 0.7 -1.6
v -1.2 2.5 -1.6
v -1.2 2.8 -1.6
v -0.9 0.3 -1.6
v -0.9 0.4 -1.6
v -0.9 2.8 -1.6
v -0.9 2.9 -1.6
v 0.9 0.3 -1.6
v 0.9 0.4 -1.6
v 0.9 2.8 -1.6
v 0.9 2.9 -1.6
v 1.2 0.4 -1.6
v 1.2 0.7 -1.6
v 1.2 2.5 -1.6
v 1.2 2.8 -1.6
v 1.3 0.7 -1.6
v 1.3 2.5 -1.6
v 1.6 0 -1.6
v 1.6 3.2 -1.6
v -1.6 0 1.6
v 1.6 0 1.6
v -0.9 0 1.3
v 0.9 0 1.3
v -1.2 0 1.2
v -0.9 0 1.2
v 0.9 0 1.2
v 1.2 0 1.2
v -1.3 0 0.9
v -1.2 0 0.9
v 1.2 0 0.9
v 1.3 0 0.9
v -1.3 0 -0.9
v -1.2 0 -0.9
v 1.2 0 -0.9
v 1.3 0 -0.9
v -1.2 0 -1.2
v -0.9 0 -1.2
v 0.9 0 -1.2
v 1.2 0 -1.2
v -0.9 0 -1.3
v 0.9 0 -1.3
v -1.6 0 -1.6
v 1.6 0 -1.6
v 1.4 3.1 1.3
v 1.5 3.1 1.3
v 1.4 3.1 0.8
v 1.5 3.1 0.8
v 1.4 3 1.3
v 1.5 3 1.3
v 1.4 3 0.8
v 1.5 3 0.8
v -1.6 3.2 1.6
v 1.6 3.2 1.6
v -0.9 3.2 1.3
v 0.9 3.2 1.3
v -1.2 3.2 1.2
v -0.9 3.2 1.2
v 0.9 3.2 1.2
v 1.2 3.2 1.2
v -1.3 3.2 0.9
v -1.2 3.2 0.9
v 1.2 3.2 0.9
v 1.3 3.2 0.9
v -1.3 3.2 -0.9
v -1.2 3.2 -0.9
v 1.2 3.2 -0.9
v 1.3 3.2 -0.9
v -1.2 3.2 -1.2
v -0.9 3.2 -1.2
v 0.9 3.2 -1.2
v 1.2 3.2 -1.2
v -0.9 3.2 -1.3
v 0.9 3.2 -1.3
v -1.6 3.2 -1.6
v 1.6 3.2 -1.6

# faces
f 3/7/1 2/7/1 1/7/1
f 4/7/1 2/7/1 3/7/1
f 5/7/1 3/7/1 1/7/1
f 6/6/1 4/6/1 3/6/1
f 6/7/1 3/7/1 5/7/1
f 7/7/1 2/7/1 4/7/1
f 7/6/1 4/6/1 6/6/1
f 8/7/1 2/7/1 7/7/1
f 9/7/1 5/7/1 1/7/1
f 10/6/1 6/6/1 5/6/1
f 10/7/1 5/7/1 9/7/1
f 10/6/1 7/6/1 6/6/1
f 10/6/1 8/6/1 7/6/1
f 11/7/1 2/7/1 8/7/1
f 11/6/1 8/6/1 10/6/1
f 12/7/1 2/7/1 11/7/1
f 13/7/1 9/7/1 1/7/1
f 13/6/1 10/6/1 9/6/1
f 13/6/1 12/6/1 11/6/1
f 13/6/1 11/6/1 10/6/1
f 14/6/1 12/6/1 13/6/1
f 15/6/1 12/6/1 14/6/1
f 16/7/1 2/7/1 12/7/1
f 16/6/1 12/6/1 15/6/1
f 17/6/1 15/6/1 14/6/1
f 17/7/1 14/7/1 13/7/1
f 18/6/1 15/6/1 17/6/1
f 19/6/1 15/6/1 18/6/1
f 20/7/1 16/7/1 15/7/1
f 20/6/1 15/6/1 19/6/1
f 21/6/1 19/6/1 18/6/1
f 21/7/1 18/7/1 17/7/1
f 22/7/1 20/7/1 19/7/1
f 22/6/1 19/6/1 21/6/1
f 23/7/1 13/7/1 1/7/1
f 23/7/1 17/7/1 13/7/1
f 23/7/1 22/7/1 21/7/1
f 23/7/1 21/7/1 17/7/1
f 24/7/1 2/7/1 16/7/1
f 24/7/1 22/7/1 23/7/1
f 24/7/1 20/7/1 22/7/1
f 24/7/1 16/7/1 20/7/1
f 27/7/1 26/7/1 25/7/1
f 28/7/1 26/7/1 27/7/1
f 29/5/2 30/5/2 31/5/2
f 31/5/2 30/5/2 32/5/2
f 33/7/2 34/7/2 35/7/2
f 35/7/2 34/7/2 36/7/2
f 33/7/2 35/7/2 37/7/2
f 35/6/2 36/6/2 38/6/2
f 37/7/2 35/7/2 38/7/2
f 36/7/2 34/7/2 39/7/2
f 38/6/2 36/6/2 39/6/2
f 39/7/2 34/7/2 40/7/2
f 37/6/2 38/6/2 41/6/2
f 38/6/2 39/6/2 41/6/2
f 39/6/2 40/6/2 41/6/2
f 41/6/2 40/6/2 42/6/2
f 37/6/2 41/6/2 43/6/2
f 41/7/2 42/7/2 44/7/2
f 43/6/2 41/6/2 44/6/2
f 42/6/2 40/6/2 45/6/2
f 44/7/2 42/7/2 45/7/2
f 45/6/2 40/6/2 46/6/2
f 33/7/2 37/7/2 47/7/2
f 37/6/2 43/6/2 48/6/2
f 47/7/2 37/7/2 48/7/2
f 48/6/2 43/6/2 49/6/2
f 43/7/2 44/7/2 50/7/2
f 49/6/2 43/6/2 50/6/2
f 44/3/2 45/3/2 51/3/2
f 50/7/2 44/7/2 51/7/2
f 51/3/2 45/3/2 52/3/2
f 45/7/2 46/7/2 53/7/2
f 52/3/2 45/3/2 53/3/2
f 46/6/2 40/6/2 54/6/2
f 53/7/2 46/7/2 54/7/2
f 54/6/2 40/6/2 55/6/2
f 40/7/2 34/7/2 56/7/2
f 55/6/2 40/6/2 56/6/2
f 56/7/2 34/7/2 57/7/2
f 52/3/2 53/3/2 58/3/2
f 51/4/2 52/4/2 58/4/2
f 53/3/2 54/3/2 58/3/2
f 58/3/2 54/3/2 59/3/2
f 50/2/2 51/2/2 60/2/2
f 51/4/2 58/4/2 60/4/2
f 58/4/2 59/4/2 60/4/2
f 60/4/2 59/4/2 61/4/2
f 48/6/2 49/6/2 62/6/2
f 49/7/2 50/7/2 62/7/2
f 47/6/2 48/6/2 62/6/2
f 60/2/2 61/2/2 63/2/2
f 62/7/2 50/7/2 63/7/2
f 50/2/2 60/2/2 63/2/2
f 63/2/2 61/2/2 64/2/2
f 61/4/2 59/4/2 65/4/2
f 64/2/2 61/2/2 65/2/2
f 59/3/2 54/3/2 66/3/2
f 65/4/2 59/4/2 66/4/2
f 54/7/2 55/7/2 67/7/2
f 66/3/2 54/3/2 67/3/2
f 56/6/2 57/6/2 68/6/2
f 67/7/2 55/7/2 68/7/2
f 55/6/2 56/6/2 68/6/2
f 63/7/2 64/7/2 69/7/2
f 62/6/2 63/6/2 69/6/2
f 65/2/2 66/2/2 70/2/2
f 69/7/2 64/7/2 70/7/2
f 64/2/2 65/2/2 70/2/2
f 66/7/2 67/7/2 71/7/2
f 70/2/2 66/2/2 71/2/2
f 67/6/2 68/6/2 72/6/2
f 71/7/2 67/7/2 72/7/2
f 68/6/2 57/6/2 73/6/2
f 72/6/2 68/6/2 73/6/2
f 73/6/2 57/6/2 74/6/2
f 69/6/2 70/6/2 75/6/2
f 70/7/2 71/7/2 75/7/2
f 71/6/2 72/6/2 76/6/2
f 75/7/2 71/7/2 76/7/2
f 72/6/2 73/6/2 76/6/2
f 76/6/2 73/6/2 77/6/2
f 73/7/2 74/7/2 78/7/2
f 77/6/2 73/6/2 78/6/2
f 74/6/2 57/6/2 79/6/2
f 78/7/2 74/7/2 79/7/2
f 79/6/2 57/6/2 80/6/2
f 76/6/2 77/6/2 81/6/2
f 75/6/2 76/6/2 81/6/2
f 77/7/2 78/7/2 82/7/2
f 81/6/2 77/6/2 82/6/2
f 78/3/2 79/3/2 83/3/2
f 82/7/2 78/7/2 83/7/2
f 83/3/2 79/3/2 84/3/2
f 79/7/2 80/7/2 85/7/2
f 84/3/2 79/3/2 85/3/2
f 80/6/2 57/6/2 86/6/2
f 85/7/2 80/7/2 86/7/2
f 86/6/2 57/6/2 87/6/2
f 84/3/2 85/3/2 88/3/2
f 83/4/2 84/4/2 88/4/2
f 85/3/2 86/3/2 88/3/2
f 88/3/2 86/3/2 89/3/2
f 82/2/2 83/2/2 90/2/2
f 83/4/2 88/4/2 90/4/2
f 88/4/2 89/4/2 90/4/2
f 90/4/2 89/4/2 91/4/2
f 75/6/2 81/6/2 92/6/2
f 81/7/2 82/7/2 92/7/2
f 90/2/2 91/2/2 93/2/2
f 92/7/2 82/7/2 93/7/2
f 82/2/2 90/2/2 93/2/2
f 93/2/2 91/2/2 94/2/2
f 91/4/2 89/4/2 95/4/2
f 94/2/2 91/2/2 95/2/2
f 89/3/2 86/3/2 96/3/2
f 95/4/2 89/4/2 96/4/2
f 86/7/2 87/7/2 97/7/2
f 96/3/2 86/3/2 97/3/2
f 87/6/2 57/6/2 98/6/2
f 97/7/2 87/7/2 98/7/2
f 93/7/2 94/7/2 99/7/2
f 92/6/2 93/6/2 99/6/2
f 95/2/2 96/2/2 100/2/2
f 99/7/2 94/7/2 100/7/2
f 94/2/2 95/2/2 100/2/2
f 96/7/2 97/7/2 101/7/2
f 100/2/2 96/2/2 101/2/2
f 97/6/2 98/6/2 102/6/2
f 101/7/2 97/7/2 102/7/2
f 98/6/2 57/6/2 103/6/2
f 102/6/2 98/6/2 103/6/2
f 103/6/2 57/6/2 104/6/2
f 99/6/2 100/6/2 105/6/2
f 100/7/2 101/7/2 105/7/2
f 101/6/2 102/6/2 106/6/2
f 105/7/2 101/7/2 106/7/2
f 102/6/2 103/6/2 106/6/2
f 106/6/2 103/6/2 107/6/2
f 103/7/2 104/7/2 108/7/2
f 107/6/2 103/6/2 108/6/2
f 104/6/2 57/6/2 109/6/2
f 108/7/2 104/7/2 109/7/2
f 109/6/2 57/6/2 110/6/2
f 106/6/2 107/6/2 111/6/2
f 105/6/2 106/6/2 111/6/2
f 107/7/2 108/7/2 112/7/2
f 111/6/2 107/6/2 112/6/2
f 108/3/2 109/3/2 113/3/2
f 112/7/2 108/7/2 113/7/2
f 113/3/2 109/3/2 114/3/2
f 109/7/2 110/7/2 115/7/2
f 114/3/2 109/3/2 115/3/2
f 110/6/2 57/6/2 116/6/2
f 115/7/2 110/7/2 116/7/2
f 116/6/2 57/6/2 117/6/2
f 114/3/2 115/3/2 118/3/2
f 113/4/2 114/4/2 118/4/2
f 115/3/2 116/3/2 118/3/2
f 118/3/2 116/3/2 119/3/2
f 112/2/2 113/2/2 120/2/2
f 113/4/2 118/4/2 120/4/2
f 118/4/2 119/4/2 120/4/2
f 120/4/2 119/4/2 121/4/2
f 62/6/2 69/6/2 122/6/2
f 69/6/2 75/6/2 122/6/2
f 33/7/2 47/7/2 122/7/2
f 47/6/2 62/6/2 122/6/2
f 99/6/2 105/6/2 122/6/2
f 105/6/2 111/6/2 122/6/2
f 92/6/2 99/6/2 122/6/2
f 75/6/2 92/6/2 122/6/2
f 122/6/2 111/6/2 123/6/2
f 111/7/2 112/7/2 124/7/2
f 123/6/2 111/6/2 124/6/2
f 120/2/2 121/2/2 125/2/2
f 124/7/2 112/7/2 125/7/2
f 112/2/2 120/2/2 125/2/2
f 125/2/2 121/2/2 126/2/2
f 121/4/2 119/4/2 127/4/2
f 126/2/2 121/2/2 127/2/2
f 119/3/2 116/3/2 128/3/2
f 127/4/2 119/4/2 128/4/2
f 116/7/2 117/7/2 129/7/2
f 128/3/2 116/3/2 129/3/2
f 117/6/2 57/6/2 130/6/2
f 129/7/2 117/7/2 130/7/2
f 130/6/2 57/6/2 131/6/2
f 57/7/2 34/7/2 132/7/2
f 131/6/2 57/6/2 132/6/2
f 125/7/2 126/7/2 133/7/2
f 123/6/2 124/6/2 133/6/2
f 124/6/2 125/6/2 133/6/2
f 126/2/2 127/2/2 134/2/2
f 133/7/2 126/7/2 134/7/2
f 127/2/2 128/2/2 134/2/2
f 128/7/2 129/7/2 135/7/2
f 134/2/2 128/2/2 135/2/2
f 130/6/2 131/6/2 136/6/2
f 135/7/2 129/7/2 136/7/2
f 129/6/2 130/6/2 136/6/2
f 134/7/2 135/7/2 137/7/2
f 133/6/2 134/6/2 137/6/2
f 135/6/2 136/6/2 138/6/2
f 137/7/2 135/7/2 138/7/2
f 123/6/2 133/6/2 139/6/2
f 122/7/2 123/7/2 139/7/2
f 137/6/2 138/6/2 139/6/2
f 133/6/2 137/6/2 139/6/2
f 139/6/2 138/6/2 140/6/2
f 138/6/2 136/6/2 141/6/2
f 140/6/2 138/6/2 141/6/2
f 136/6/2 131/6/2 142/6/2
f 141/6/2 136/6/2 142/6/2
f 131/7/2 132/7/2 142/7/2
f 140/6/2 141/6/2 143/6/2
f 139/7/2 140/7/2 143/7/2
f 141/7/2 142/7/2 144/7/2
f 143/6/2 141/6/2 144/6/2
f 122/7/2 139/7/2 145/7/2
f 33/7/2 122/7/2 145/7/2
f 143/7/2 144/7/2 145/7/2
f 139/7/2 143/7/2 145/7/2
f 132/7/2 34/7/2 146/7/2
f 145/7/2 144/7/2 146/7/2
f 142/7/2 132/7/2 146/7/2
f 144/7/2 142/7/2 146/7/2
f 149/7/3 148/7/3 147/7/3
f 150/7/3 148/7/3 149/7/3
f 151/7/3 149/7/3 147/7/3
f 152/6/3 150/6/3 149/6/3
f 152/7/3 149/7/3 151/7/3
f 153/7/3 148/7/3 150/7/3
f 153/6/3 150/6/3 152/6/3
f 154/7/3 148/7/3 153/7/3
f 155/7/3 151/7/3 147/7/3
f 156/6/3 152/6/3 151/6/3
f 156/7/3 151/7/3 155/7/3
f 156/6/3 153/6/3 152/6/3
f 156/6/3 154/6/3 153/6/3
f 157/7/3 148/7/3 154/7/3
f 157/6/3 154/6/3 156/6/3
f 158/7/3 148/7/3 157/7/3
f 159/7/3 155/7/3 147/7/3
f 159/6/3 156/6/3 155/6/3
f 159/6/3 158/6/3 157/6/3
f 159/6/3 157/6/3 156/6/3
f 160/6/3 158/6/3 159/6/3
f 161/6/3 158/6/3 160/6/3
f 162/7/3 148/7/3 158/7/3
f 162/6/3 158/6/3 161/6/3
f 163/6/3 161/6/3 160/6/3
f 163/7/3 160/7/3 159/7/3
f 164/6/3 161/6/3 163/6/3
f 165/6/3 161/6/3 164/6/3
f 166/7/3 162/7/3 161/7/3
f 166/6/3 161/6/3 165/6/3
f 167/6/3 165/6/3 164/6/3
f 167/7/3 164/7/3 163/7/3
f 168/7/3 166/7/3 165/7/3
f 168/6/3 165/6/3 167/6/3
f 169/7/3 159/7/3 147/7/3
f 169/7/3 163/7/3 159/7/3
f 169/7/3 168/7/3 167/7/3
f 169/7/3 167/7/3 163/7/3
f 170/7/3 148/7/3 162/7/3
f 170/7/3 168/7/3 169/7/3
f 170/7/3 166/7/3 168/7/3
f 170/7/3 162/7/3 166/7/3
f 173/5/3 172/5/3 171/5/3
f 174/5/3 172/5/3 173/5/3
f 175/7/4 176/7/4 177/7/4
f 177/7/4 176/7/4 178/7/4
f 179/7/4 180/7/4 181/7/4
f 181/7/4 180/7/4 182/7/4
f 179/7/4 181/7/4 183/7/4
f 181/6/4 182/6/4 184/6/4
f 183/7/4 181/7/4 184/7/4
f 182/7/4 180/7/4 185/7/4
f 184/6/4 182/6/4 185/6/4
f 185/7/4 180/7/4 186/7/4
f 179/7/4 183/7/4 187/7/4
f 183/6/4 184/6/4 188/6/4
f 187/7/4 183/7/4 188/7/4
f 184/6/4 185/6/4 188/6/4
f 185/6/4 186/6/4 188/6/4
f 186/7/4 180/7/4 189/7/4
f 188/6/4 186/6/4 189/6/4
f 189/7/4 180/7/4 190/7/4
f 179/7/4 187/7/4 191/7/4
f 187/6/4 188/6/4 191/6/4
f 189/6/4 190/6/4 191/6/4
f 188/6/4 189/6/4 191/6/4
f 191/6/4 190/6/4 192/6/4
f 192/6/4 190/6/4 193/6/4
f 190/7/4 180/7/4 194/7/4
f 193/6/4 190/6/4 194/6/4
f 192/6/4 193/6/4 195/6/4
f 191/7/4 192/7/4 195/7/4
f 195/6/4 193/6/4 196/6/4
f 196/6/4 193/6/4 197/6/4
f 193/7/4 194/7/4 198/7/4
f 197/6/4 193/6/4 198/6/4
f 196/6/4 197/6/4 199/6/4
f 195/7/4 196/7/4 199/7/4
f 197/7/4 198/7/4 200/7/4
f 199/6/4 197/6/4 200/6/4
f 179/7/4 191/7/4 201/7/4
f 191/7/4 195/7/4 201/7/4
f 199/7/4 200/7/4 201/7/4
f 195/7/4 199/7/4 201/7/4
f 194/7/4 180/7/4 202/7/4
f 201/7/4 200/7/4 202/7/4
f 200/7/4 198/7/4 202/7/4
f 198/7/4 194/7/4 202/7/4
f 205/7/5 204/7/5 203/7/5
f 206/7/5 204/7/5 205/7/5
f 207/7/5 205/7/5 203/7/5
f 208/6/5 206/6/5 205/6/5
f 208/7/5 205/7/5 207/7/5
f 209/7/5 204/7/5 206/7/5
f 209/6/5 206/6/5 208/6/5
f 210/7/5 204/7/5 209/7/5
f 211/7/5 207/7/5 203/7/5
f 212/6/5 208/6/5 207/6/5
f 212/7/5 207/7/5 211/7/5
f 212/6/5 209/6/5 208/6/5
f 212/6/5 210/6/5 209/6/5
f 213/7/5 204/7/5 210/7/5
f 213/6/5 210/6/5 212/6/5
f 214/7/5 204/7/5 213/7/5
f 215/7/5 211/7/5 203/7/5
f 215/6/5 212/6/5 211/6/5
f 215/6/5 214/6/5 213/6/5
f 215/6/5 213/6/5 212/6/5
f 216/6/5 214/6/5 215/6/5
f 217/6/5 214/6/5 216/6/5
f 218/7/5 204/7/5 214/7/5
f 218/6/5 214/6/5 217/6/5
f 219/6/5 217/6/5 216/6/5
f 219/7/5 216/7/5 215/7/5
f 220/6/5 217/6/5 219/6/5
f 221/6/5 217/6/5 220/6/5
f 222/7/5 218/7/5 217/7/5
f 222/6/5 217/6/5 221/6/5
f 223/6/5 221/6/5 220/6/5
f 223/7/5 220/7/5 219/7/5
f 224/7/5 222/7/5 221/7/5
f 224/6/5 221/6/5 223/6/5
f 225/7/5 215/7/5 203/7/5
f 225/7/5 219/7/5 215/7/5
f 225/7/5 224/7/5 223/7/5
f 225/7/5 223/7/5 219/7/5
f 226/7/5 204/7/5 218/7/5
f 226/7/5 224/7/5 225/7/5
f 226/7/5 222/7/5 224/7/5
f 226/7/5 218/7/5 222/7/5
f 229/7/5 228/7/5 227/7/5
f 230/7/5 228/7/5 229/7/5
f 231/5/6 232/5/6 233/5/6
f 233/5/6 232/5/6 234/5/6
f 235/7/6 236/7/6 237/7/6
f 237/7/6 236/7/6 238/7/6
f 235/7/6 237/7/6 239/7/6
f 237/6/6 238/6/6 240/6/6
f 239/7/6 237/7/6 240/7/6
f 238/7/6 236/7/6 241/7/6
f 240/6/6 238/6/6 241/6/6
f 241/7/6 236/7/6 242/7/6
f 235/7/6 239/7/6 243/7/6
f 239/6/6 240/6/6 244/6/6
f 243/7/6 239/7/6 244/7/6
f 240/6/6 241/6/6 244/6/6
f 241/6/6 242/6/6 244/6/6
f 242/7/6 236/7/6 245/7/6
f 244/6/6 242/6/6 245/6/6
f 245/7/6 236/7/6 246/7/6
f 235/7/6 243/7/6 247/7/6
f 243/6/6 244/6/6 247/6/6
f 245/6/6 246/6/6 247/6/6
f 244/6/6 245/6/6 247/6/6
f 247/6/6 246/6/6 248/6/6
f 248/6/6 246/6/6 249/6/6
f 246/7/6 236/7/6 250/7/6
f 249/6/6 246/6/6 250/6/6
f 248/6/6 249/6/6 251/6/6
f 247/7/6 248/7/6 251/7/6
f 251/6/6 249/6/6 252/6/6
f 252/6/6 249/6/6 253/6/6
f 249/7/6 250/7/6 254/7/6
f 253/6/6 249/6/6 254/6/6
f 252/6/6 253/6/6 255/6/6
f 251/7/6 252/7/6 255/7/6
f 253/7/6 254/7/6 256/7/6
f 255/6/6 253/6/6 256/6/6
f 235/7/6 247/7/6 257/7/6
f 247/7/6 251/7/6 257/7/6
f 255/7/6 256/7/6 257/7/6
f 251/7/6 255/7/6 257/7/6
f 250/7/6 236/7/6 258/7/6
f 257/7/6 256/7/6 258/7/6
f 256/7/6 254/7/6 258/7/6
f 254/7/6 250/7/6 258/7/6
