# MagicaVoxel @ Ephtracy

# group
o 

# material
mtllib Target4.mtl
usemtl palette

# normals
vn -1 0 0
vn 1 0 0
vn 0 0 1
vn 0 0 -1
vn 0 -1 0
vn 0 1 0

# texcoords
vt 0.306641 0.5
vt 0.740234 0.5
vt 0.744141 0.5
vt 0.748047 0.5
vt 0.841797 0.5
vt 0.958984 0.5
vt 0.978516 0.5
vt 0.990234 0.5

# verts
v -1.6 0 1.6
v -1.6 0 -1.6
v -1.6 0.3 0.9
v -1.6 0.3 -0.9
v -1.6 0.4 1.2
v -1.6 0.4 0.9
v -1.6 0.4 -0.9
v -1.6 0.4 -1.2
v -1.6 0.5 0.8
v -1.6 0.5 0.4
v -1.6 0.5 -0.4
v -1.6 0.5 -0.8
v -1.6 0.6 1
v -1.6 0.6 0.8
v -1.6 0.6 0.4
v -1.6 0.6 0.2
v -1.6 0.6 -0.2
v -1.6 0.6 -0.4
v -1.6 0.6 -0.8
v -1.6 0.6 -1
v -1.6 0.7 1.3
v -1.6 0.7 1.2
v -1.6 0.7 0.9
v -1.6 0.7 0.8
v -1.6 0.7 0.7
v -1.6 0.7 0.4
v -1.6 0.7 0.3
v -1.6 0.7 -0.3
v -1.6 0.7 -0.4
v -1.6 0.7 -0.5
v -1.6 0.7 -0.8
v -1.6 0.7 -0.9
v -1.6 0.7 -1.2
v -1.6 0.7 -1.3
v -1.6 0.8 1.1
v -1.6 0.8 1
v -1.6 0.8 0.9
v -1.6 0.8 0.8
v -1.6 0.8 0.7
v -1.6 0.8 0.3
v -1.6 0.8 0.2
v -1.6 0.8 0.1
v -1.6 0.8 -0.1
v -1.6 0.8 -0.2
v -1.6 0.8 -0.3
v -1.6 0.8 -0.4
v -1.6 0.8 -0.5
v -1.6 0.8 -0.9
v -1.6 0.8 -1
v -1.6 0.8 -1.1
v -1.6 0.9 0.9
v -1.6 0.9 0.8
v -1.6 0.9 -0.3
v -1.6 0.9 -0.4
v -1.6 1.1 0.4
v -1.6 1.1 0.3
v -1.6 1.1 -0.8
v -1.6 1.1 -0.9
v -1.6 1.2 1.1
v -1.6 1.2 1
v -1.6 1.2 0.9
v -1.6 1.2 0.5
v -1.6 1.2 0.4
v -1.6 1.2 0.3
v -1.6 1.2 0.2
v -1.6 1.2 0.1
v -1.6 1.2 -0.1
v -1.6 1.2 -0.2
v -1.6 1.2 -0.3
v -1.6 1.2 -0.7
v -1.6 1.2 -0.8
v -1.6 1.2 -0.9
v -1.6 1.2 -1
v -1.6 1.2 -1.1
v -1.6 1.3 0.9
v -1.6 1.3 0.8
v -1.6 1.3 0.5
v -1.6 1.3 0.4
v -1.6 1.3 0.3
v -1.6 1.3 -0.3
v -1.6 1.3 -0.4
v -1.6 1.3 -0.7
v -1.6 1.3 -0.8
v -1.6 1.3 -0.9
v -1.6 1.4 1
v -1.6 1.4 0.8
v -1.6 1.4 0.4
v -1.6 1.4 0.2
v -1.6 1.4 -0.2
v -1.6 1.4 -0.4
v -1.6 1.4 -0.8
v -1.6 1.4 -1
v -1.6 1.5 0.8
v -1.6 1.5 0.4
v -1.6 1.5 -0.4
v -1.6 1.5 -0.8
v -1.6 1.7 0.8
v -1.6 1.7 0.4
v -1.6 1.7 -0.4
v -1.6 1.7 -0.8
v -1.6 1.8 1
v -1.6 1.8 0.8
v -1.6 1.8 0.4
v -1.6 1.8 0.2
v -1.6 1.8 -0.2
v -1.6 1.8 -0.4
v -1.6 1.8 -0.8
v -1.6 1.8 -1
v -1.6 1.9 0.9
v -1.6 1.9 0.8
v -1.6 1.9 0.7
v -1.6 1.9 0.4
v -1.6 1.9 0.3
v -1.6 1.9 -0.3
v -1.6 1.9 -0.4
v -1.6 1.9 -0.5
v -1.6 1.9 -0.8
v -1.6 1.9 -0.9
v -1.6 2 1.1
v -1.6 2 1
v -1.6 2 0.9
v -1.6 2 0.8
v -1.6 2 0.7
v -1.6 2 0.3
v -1.6 2 0.2
v -1.6 2 -0.1
v -1.6 2 -0.2
v -1.6 2 -0.3
v -1.6 2 -0.4
v -1.6 2 -0.5
v -1.6 2 -0.9
v -1.6 2 -1
v -1.6 2 -1.1
v -1.6 2.1 0.9
v -1.6 2.1 0.8
v -1.6 2.1 0.2
v -1.6 2.1 0.1
v -1.6 2.1 -0.3
v -1.6 2.1 -0.4
v -1.6 2.3 0.4
v -1.6 2.3 0.3
v -1.6 2.3 -0.8
v -1.6 2.3 -0.9
v -1.6 2.4 1.1
v -1.6 2.4 1
v -1.6 2.4 0.9
v -1.6 2.4 0.5
v -1.6 2.4 0.4
v -1.6 2.4 0.3
v -1.6 2.4 0.2
v -1.6 2.4 0.1
v -1.6 2.4 -0.1
v -1.6 2.4 -0.2
v -1.6 2.4 -0.3
v -1.6 2.4 -0.7
v -1.6 2.4 -0.8
v -1.6 2.4 -0.9
v -1.6 2.4 -1
v -1.6 2.4 -1.1
v -1.6 2.5 1.3
v -1.6 2.5 1.2
v -1.6 2.5 0.9
v -1.6 2.5 0.8
v -1.6 2.5 0.5
v -1.6 2.5 0.4
v -1.6 2.5 0.3
v -1.6 2.5 -0.3
v -1.6 2.5 -0.4
v -1.6 2.5 -0.7
v -1.6 2.5 -0.8
v -1.6 2.5 -0.9
v -1.6 2.5 -1.2
v -1.6 2.5 -1.3
v -1.6 2.6 1
v -1.6 2.6 0.8
v -1.6 2.6 0.4
v -1.6 2.6 0.2
v -1.6 2.6 -0.2
v -1.6 2.6 -0.4
v -1.6 2.6 -0.8
v -1.6 2.6 -1
v -1.6 2.7 0.8
v -1.6 2.7 0.4
v -1.6 2.7 -0.4
v -1.6 2.7 -0.8
v -1.6 2.8 1.2
v -1.6 2.8 0.9
v -1.6 2.8 -0.9
v -1.6 2.8 -1.2
v -1.6 2.9 0.9
v -1.6 2.9 -0.9
v -1.6 3.2 1.6
v -1.6 3.2 -1.6
v 1.5 3 1.3
v 1.5 3 0.8
v 1.5 3.1 1.3
v 1.5 3.1 0.8
v 1.4 3 1.3
v 1.4 3 0.8
v 1.4 3.1 1.3
v 1.4 3.1 0.8
v 1.6 0 1.6
v 1.6 0 -1.6
v 1.6 0.3 0.9
v 1.6 0.3 -0.9
v 1.6 0.4 1.2
v 1.6 0.4 0.9
v 1.6 0.4 -0.9
v 1.6 0.4 -1.2
v 1.6 0.7 1.3
v 1.6 0.7 1.2
v 1.6 0.7 -1.2
v 1.6 0.7 -1.3
v 1.6 2.5 1.3
v 1.6 2.5 1.2
v 1.6 2.5 -1.2
v 1.6 2.5 -1.3
v 1.6 2.8 1.2
v 1.6 2.8 0.9
v 1.6 2.8 -0.9
v 1.6 2.8 -1.2
v 1.6 2.9 0.9
v 1.6 2.9 -0.9
v 1.6 3.2 1.6
v 1.6 3.2 -1.6
v -1.6 0 1.6
v -1.6 3.2 1.6
v -1.3 0.7 1.6
v -1.3 2.5 1.6
v -1.2 0.4 1.6
v -1.2 0.7 1.6
v -1.2 2.5 1.6
v -1.2 2.8 1.6
v -0.9 0.3 1.6
v -0.9 0.4 1.6
v -0.9 2.8 1.6
v -0.9 2.9 1.6
v 0.9 0.3 1.6
v 0.9 0.4 1.6
v 0.9 2.8 1.6
v 0.9 2.9 1.6
v 1.2 0.4 1.6
v 1.2 0.7 1.6
v 1.2 2.5 1.6
v 1.2 2.8 1.6
v 1.3 0.7 1.6
v 1.3 2.5 1.6
v 1.6 0 1.6
v 1.6 3.2 1.6
v 1.4 3 0.8
v 1.4 3.1 0.8
v 1.5 3 0.8
v 1.5 3.1 0.8
v 1.4 3 1.3
v 1.4 3.1 1.3
v 1.5 3 1.3
v 1.5 3.1 1.3
v -1.6 0 -1.6
v -1.6 3.2 -1.6
v -1.3 0.7 -1.6
v -1.3 2.5 -1.6
v -1.2 0.4 -1.6
v -1.2 0.7 -1.6
v -1.2 2.5 -1.6
v -1.2 2.8 -1.6
v -0.9 0.3 -1.6
v -0.9 0.4 -1.6
v -0.9 2.8 -1.6
v -0.9 2.9 -1.6
v 0.9 0.3 -1.6
v 0.9 0.4 -1.6
v 0.9 2.8 -1.6
v 0.9 2.9 -1.6
v 1.2 0.4 -1.6
v 1.2 0.7 -1.6
v 1.2 2.5 -1.6
v 1.2 2.8 -1.6
v 1.3 0.7 -1.6
v 1.3 2.5 -1.6
v 1.6 0 -1.6
v 1.6 3.2 -1.6
v -1.6 0 1.6
v 1.6 0 1.6
v -0.9 0 1.3
v 0.9 0 1.3
v -1.2 0 1.2
v -0.9 0 1.2
v 0.9 0 1.2
v 1.2 0 1.2
v -1.3 0 0.9
v -1.2 0 0.9
v 1.2 0 0.9
v 1.3 0 0.9
v -1.3 0 -0.9
v -1.2 0 -0.9
v 1.2 0 -0.9
v 1.3 0 -0.9
v -1.2 0 -1.2
v -0.9 0 -1.2
v 0.9 0 -1.2
v 1.2 0 -1.2
v -0.9 0 -1.3
v 0.9 0 -1.3
v -1.6 0 -1.6
v 1.6 0 -1.6
v 1.4 3.1 1.3
v 1.5 3.1 1.3
v 1.4 3.1 0.8
v 1.5 3.1 0.8
v 1.4 3 1.3
v 1.5 3 1.3
v 1.4 3 0.8
v 1.5 3 0.8
v -1.6 3.2 1.6
v 1.6 3.2 1.6
v -0.9 3.2 1.3
v 0.9 3.2 1.3
v -1.2 3.2 1.2
v -0.9 3.2 1.2
v 0.9 3.2 1.2
v 1.2 3.2 1.2
v -1.3 3.2 0.9
v -1.2 3.2 0.9
v 1.2 3.2 0.9
v 1.3 3.2 0.9
v -1.3 3.2 -0.9
v -1.2 3.2 -0.9
v 1.2 3.2 -0.9
v 1.3 3.2 -0.9
v -1.2 3.2 -1.2
v -0.9 3.2 -1.2
v 0.9 3.2 -1.2
v 1.2 3.2 -1.2
v -0.9 3.2 -1.3
v 0.9 3.2 -1.3
v -1.6 3.2 -1.6
v 1.6 3.2 -1.6

# faces
f 3/7/1 2/7/1 1/7/1
f 4/7/1 2/7/1 3/7/1
f 5/7/1 3/7/1 1/7/1
f 6/6/1 4/6/1 3/6/1
f 6/7/1 3/7/1 5/7/1
f 7/7/1 2/7/1 4/7/1
f 7/6/1 4/6/1 6/6/1
f 8/7/1 2/7/1 7/7/1
f 9/6/1 6/6/1 5/6/1
f 9/6/1 7/6/1 6/6/1
f 9/6/1 8/6/1 7/6/1
f 10/6/1 8/6/1 9/6/1
f 11/6/1 8/6/1 10/6/1
f 12/6/1 8/6/1 11/6/1
f 13/6/1 9/6/1 5/6/1
f 14/7/1 10/7/1 9/7/1
f 14/6/1 9/6/1 13/6/1
f 15/6/1 11/6/1 10/6/1
f 15/7/1 10/7/1 14/7/1
f 16/6/1 11/6/1 15/6/1
f 17/6/1 11/6/1 16/6/1
f 18/7/1 12/7/1 11/7/1
f 18/6/1 11/6/1 17/6/1
f 19/6/1 8/6/1 12/6/1
f 19/7/1 12/7/1 18/7/1
f 20/6/1 8/6/1 19/6/1
f 21/7/1 5/7/1 1/7/1
f 22/6/1 13/6/1 5/6/1
f 22/7/1 5/7/1 21/7/1
f 23/7/1 14/7/1 13/7/1
f 24/3/1 15/3/1 14/3/1
f 24/7/1 14/7/1 23/7/1
f 25/3/1 15/3/1 24/3/1
f 26/7/1 16/7/1 15/7/1
f 26/3/1 15/3/1 25/3/1
f 27/7/1 16/7/1 26/7/1
f 28/7/1 18/7/1 17/7/1
f 29/3/1 19/3/1 18/3/1
f 29/7/1 18/7/1 28/7/1
f 30/3/1 19/3/1 29/3/1
f 31/7/1 20/7/1 19/7/1
f 31/3/1 19/3/1 30/3/1
f 32/7/1 20/7/1 31/7/1
f 33/7/1 2/7/1 8/7/1
f 33/6/1 8/6/1 20/6/1
f 34/7/1 2/7/1 33/7/1
f 35/6/1 13/6/1 22/6/1
f 35/6/1 22/6/1 21/6/1
f 36/7/1 23/7/1 13/7/1
f 36/6/1 13/6/1 35/6/1
f 37/3/1 25/3/1 24/3/1
f 37/7/1 23/7/1 36/7/1
f 37/3/1 24/3/1 23/3/1
f 38/3/1 25/3/1 37/3/1
f 39/4/1 26/4/1 25/4/1
f 39/3/1 25/3/1 38/3/1
f 39/4/1 27/4/1 26/4/1
f 40/7/1 16/7/1 27/7/1
f 40/4/1 27/4/1 39/4/1
f 41/6/1 17/6/1 16/6/1
f 41/7/1 16/7/1 40/7/1
f 42/6/1 17/6/1 41/6/1
f 43/6/1 17/6/1 42/6/1
f 44/7/1 28/7/1 17/7/1
f 44/6/1 17/6/1 43/6/1
f 45/3/1 30/3/1 29/3/1
f 45/7/1 28/7/1 44/7/1
f 45/3/1 29/3/1 28/3/1
f 46/3/1 30/3/1 45/3/1
f 47/4/1 32/4/1 31/4/1
f 47/3/1 30/3/1 46/3/1
f 47/4/1 31/4/1 30/4/1
f 48/7/1 20/7/1 32/7/1
f 48/4/1 32/4/1 47/4/1
f 49/6/1 34/6/1 33/6/1
f 49/7/1 20/7/1 48/7/1
f 49/6/1 33/6/1 20/6/1
f 50/6/1 34/6/1 49/6/1
f 51/3/1 38/3/1 37/3/1
f 51/3/1 37/3/1 36/3/1
f 52/4/1 39/4/1 38/4/1
f 52/3/1 38/3/1 51/3/1
f 52/4/1 40/4/1 39/4/1
f 53/3/1 46/3/1 45/3/1
f 53/3/1 45/3/1 44/3/1
f 54/4/1 47/4/1 46/4/1
f 54/3/1 46/3/1 53/3/1
f 54/4/1 48/4/1 47/4/1
f 55/4/1 40/4/1 52/4/1
f 55/4/1 52/4/1 51/4/1
f 56/2/1 41/2/1 40/2/1
f 56/4/1 40/4/1 55/4/1
f 57/4/1 48/4/1 54/4/1
f 57/4/1 54/4/1 53/4/1
f 58/2/1 49/2/1 48/2/1
f 58/4/1 48/4/1 57/4/1
f 59/6/1 35/6/1 21/6/1
f 59/7/1 36/7/1 35/7/1
f 60/3/1 51/3/1 36/3/1
f 60/7/1 36/7/1 59/7/1
f 61/4/1 55/4/1 51/4/1
f 61/3/1 51/3/1 60/3/1
f 62/4/1 55/4/1 61/4/1
f 63/2/1 56/2/1 55/2/1
f 63/4/1 55/4/1 62/4/1
f 64/2/1 41/2/1 56/2/1
f 64/2/1 56/2/1 63/2/1
f 65/7/1 42/7/1 41/7/1
f 65/2/1 41/2/1 64/2/1
f 66/6/1 43/6/1 42/6/1
f 66/7/1 42/7/1 65/7/1
f 67/7/1 44/7/1 43/7/1
f 67/6/1 43/6/1 66/6/1
f 68/3/1 53/3/1 44/3/1
f 68/7/1 44/7/1 67/7/1
f 69/4/1 57/4/1 53/4/1
f 69/3/1 53/3/1 68/3/1
f 70/4/1 57/4/1 69/4/1
f 71/2/1 58/2/1 57/2/1
f 71/4/1 57/4/1 70/4/1
f 72/2/1 49/2/1 58/2/1
f 72/2/1 58/2/1 71/2/1
f 73/7/1 50/7/1 49/7/1
f 73/2/1 49/2/1 72/2/1
f 74/6/1 34/6/1 50/6/1
f 74/7/1 50/7/1 73/7/1
f 75/4/1 62/4/1 61/4/1
f 75/7/1 61/7/1 60/7/1
f 76/4/1 62/4/1 75/4/1
f 77/2/1 63/2/1 62/2/1
f 77/4/1 62/4/1 76/4/1
f 77/2/1 64/2/1 63/2/1
f 78/2/1 64/2/1 77/2/1
f 79/7/1 65/7/1 64/7/1
f 79/2/1 64/2/1 78/2/1
f 80/4/1 70/4/1 69/4/1
f 80/7/1 69/7/1 68/7/1
f 81/4/1 70/4/1 80/4/1
f 82/2/1 71/2/1 70/2/1
f 82/4/1 70/4/1 81/4/1
f 82/2/1 72/2/1 71/2/1
f 83/2/1 72/2/1 82/2/1
f 84/7/1 73/7/1 72/7/1
f 84/2/1 72/2/1 83/2/1
f 85/7/1 76/7/1 75/7/1
f 85/6/1 60/6/1 59/6/1
f 85/7/1 75/7/1 60/7/1
f 86/2/1 78/2/1 77/2/1
f 86/7/1 76/7/1 85/7/1
f 86/2/1 77/2/1 76/2/1
f 87/7/1 79/7/1 78/7/1
f 87/2/1 78/2/1 86/2/1
f 88/6/1 67/6/1 66/6/1
f 88/7/1 79/7/1 87/7/1
f 88/6/1 68/6/1 67/6/1
f 88/7/1 65/7/1 79/7/1
f 88/6/1 66/6/1 65/6/1
f 89/7/1 81/7/1 80/7/1
f 89/6/1 68/6/1 88/6/1
f 89/7/1 80/7/1 68/7/1
f 90/2/1 82/2/1 81/2/1
f 90/7/1 81/7/1 89/7/1
f 90/2/1 83/2/1 82/2/1
f 91/7/1 84/7/1 83/7/1
f 91/2/1 83/2/1 90/2/1
f 92/7/1 73/7/1 84/7/1
f 92/7/1 84/7/1 91/7/1
f 92/6/1 74/6/1 73/6/1
f 93/7/1 87/7/1 86/7/1
f 93/6/1 86/6/1 85/6/1
f 94/6/1 88/6/1 87/6/1
f 94/7/1 87/7/1 93/7/1
f 94/6/1 90/6/1 89/6/1
f 94/6/1 89/6/1 88/6/1
f 95/7/1 91/7/1 90/7/1
f 95/6/1 90/6/1 94/6/1
f 96/6/1 92/6/1 91/6/1
f 96/7/1 91/7/1 95/7/1
f 97/6/1 94/6/1 93/6/1
f 97/6/1 95/6/1 94/6/1
f 97/6/1 96/6/1 95/6/1
f 97/6/1 93/6/1 85/6/1
f 98/6/1 96/6/1 97/6/1
f 99/6/1 96/6/1 98/6/1
f 100/6/1 92/6/1 96/6/1
f 100/6/1 96/6/1 99/6/1
f 101/6/1 85/6/1 59/6/1
f 101/6/1 97/6/1 85/6/1
f 102/7/1 98/7/1 97/7/1
f 102/6/1 97/6/1 101/6/1
f 103/6/1 99/6/1 98/6/1
f 103/7/1 98/7/1 102/7/1
f 104/6/1 99/6/1 103/6/1
f 105/6/1 99/6/1 104/6/1
f 106/7/1 100/7/1 99/7/1
f 106/6/1 99/6/1 105/6/1
f 107/6/1 92/6/1 100/6/1
f 107/7/1 100/7/1 106/7/1
f 108/6/1 74/6/1 92/6/1
f 108/6/1 92/6/1 107/6/1
f 109/7/1 102/7/1 101/7/1
f 110/3/1 103/3/1 102/3/1
f 110/7/1 102/7/1 109/7/1
f 111/3/1 103/3/1 110/3/1
f 112/7/1 104/7/1 103/7/1
f 112/3/1 103/3/1 111/3/1
f 113/7/1 104/7/1 112/7/1
f 114/7/1 106/7/1 105/7/1
f 115/3/1 107/3/1 106/3/1
f 115/7/1 106/7/1 114/7/1
f 116/3/1 107/3/1 115/3/1
f 117/7/1 108/7/1 107/7/1
f 117/3/1 107/3/1 116/3/1
f 118/7/1 108/7/1 117/7/1
f 119/6/1 59/6/1 21/6/1
f 119/6/1 101/6/1 59/6/1
f 120/7/1 109/7/1 101/7/1
f 120/6/1 101/6/1 119/6/1
f 121/3/1 111/3/1 110/3/1
f 121/7/1 109/7/1 120/7/1
f 121/3/1 110/3/1 109/3/1
f 122/3/1 111/3/1 121/3/1
f 123/4/1 112/4/1 111/4/1
f 123/3/1 111/3/1 122/3/1
f 123/4/1 113/4/1 112/4/1
f 124/7/1 104/7/1 113/7/1
f 124/4/1 113/4/1 123/4/1
f 125/6/1 105/6/1 104/6/1
f 125/7/1 104/7/1 124/7/1
f 126/6/1 105/6/1 125/6/1
f 127/7/1 114/7/1 105/7/1
f 127/6/1 105/6/1 126/6/1
f 128/3/1 116/3/1 115/3/1
f 128/7/1 114/7/1 127/7/1
f 128/3/1 115/3/1 114/3/1
f 129/3/1 116/3/1 128/3/1
f 130/4/1 118/4/1 117/4/1
f 130/3/1 116/3/1 129/3/1
f 130/4/1 117/4/1 116/4/1
f 131/7/1 108/7/1 118/7/1
f 131/4/1 118/4/1 130/4/1
f 132/6/1 74/6/1 108/6/1
f 132/7/1 108/7/1 131/7/1
f 133/6/1 34/6/1 74/6/1
f 133/6/1 74/6/1 132/6/1
f 134/3/1 122/3/1 121/3/1
f 134/3/1 121/3/1 120/3/1
f 135/4/1 123/4/1 122/4/1
f 135/3/1 122/3/1 134/3/1
f 135/4/1 124/4/1 123/4/1
f 136/6/1 126/6/1 125/6/1
f 136/2/1 125/2/1 124/2/1
f 137/6/1 126/6/1 136/6/1
f 138/3/1 129/3/1 128/3/1
f 138/3/1 128/3/1 127/3/1
f 139/4/1 131/4/1 130/4/1
f 139/3/1 129/3/1 138/3/1
f 139/4/1 130/4/1 129/4/1
f 140/4/1 124/4/1 135/4/1
f 140/4/1 135/4/1 134/4/1
f 141/2/1 136/2/1 124/2/1
f 141/4/1 124/4/1 140/4/1
f 142/4/1 131/4/1 139/4/1
f 142/4/1 139/4/1 138/4/1
f 143/2/1 132/2/1 131/2/1
f 143/4/1 131/4/1 142/4/1
f 144/6/1 119/6/1 21/6/1
f 144/7/1 120/7/1 119/7/1
f 145/3/1 134/3/1 120/3/1
f 145/7/1 120/7/1 144/7/1
f 146/4/1 140/4/1 134/4/1
f 146/3/1 134/3/1 145/3/1
f 147/4/1 140/4/1 146/4/1
f 148/2/1 141/2/1 140/2/1
f 148/4/1 140/4/1 147/4/1
f 149/2/1 136/2/1 141/2/1
f 149/2/1 141/2/1 148/2/1
f 150/7/1 137/7/1 136/7/1
f 150/2/1 136/2/1 149/2/1
f 151/6/1 126/6/1 137/6/1
f 151/7/1 137/7/1 150/7/1
f 152/7/1 127/7/1 126/7/1
f 152/6/1 126/6/1 151/6/1
f 153/3/1 138/3/1 127/3/1
f 153/7/1 127/7/1 152/7/1
f 154/4/1 142/4/1 138/4/1
f 154/3/1 138/3/1 153/3/1
f 155/4/1 142/4/1 154/4/1
f 156/2/1 143/2/1 142/2/1
f 156/4/1 142/4/1 155/4/1
f 157/2/1 132/2/1 143/2/1
f 157/2/1 143/2/1 156/2/1
f 158/7/1 133/7/1 132/7/1
f 158/2/1 132/2/1 157/2/1
f 159/6/1 34/6/1 133/6/1
f 159/7/1 133/7/1 158/7/1
f 160/6/1 145/6/1 144/6/1
f 160/7/1 21/7/1 1/7/1
f 160/6/1 144/6/1 21/6/1
f 161/6/1 145/6/1 160/6/1
f 162/4/1 147/4/1 146/4/1
f 162/7/1 146/7/1 145/7/1
f 163/4/1 147/4/1 162/4/1
f 164/2/1 148/2/1 147/2/1
f 164/4/1 147/4/1 163/4/1
f 164/2/1 149/2/1 148/2/1
f 165/2/1 149/2/1 164/2/1
f 166/7/1 150/7/1 149/7/1
f 166/2/1 149/2/1 165/2/1
f 167/7/1 154/7/1 153/7/1
f 167/4/1 155/4/1 154/4/1
f 168/4/1 155/4/1 167/4/1
f 169/2/1 156/2/1 155/2/1
f 169/4/1 155/4/1 168/4/1
f 169/2/1 157/2/1 156/2/1
f 170/2/1 157/2/1 169/2/1
f 171/7/1 158/7/1 157/7/1
f 171/2/1 157/2/1 170/2/1
f 172/6/1 34/6/1 159/6/1
f 172/6/1 159/6/1 158/6/1
f 173/7/1 2/7/1 34/7/1
f 173/6/1 34/6/1 172/6/1
f 174/7/1 163/7/1 162/7/1
f 174/6/1 145/6/1 161/6/1
f 174/7/1 162/7/1 145/7/1
f 175/2/1 165/2/1 164/2/1
f 175/7/1 163/7/1 174/7/1
f 175/2/1 164/2/1 163/2/1
f 176/7/1 166/7/1 165/7/1
f 176/2/1 165/2/1 175/2/1
f 177/6/1 152/6/1 151/6/1
f 177/7/1 166/7/1 176/7/1
f 177/7/1 150/7/1 166/7/1
f 177/6/1 153/6/1 152/6/1
f 177/6/1 151/6/1 150/6/1
f 178/7/1 168/7/1 167/7/1
f 178/6/1 153/6/1 177/6/1
f 178/7/1 167/7/1 153/7/1
f 179/2/1 170/2/1 169/2/1
f 179/7/1 168/7/1 178/7/1
f 179/2/1 169/2/1 168/2/1
f 180/7/1 171/7/1 170/7/1
f 180/2/1 170/2/1 179/2/1
f 181/7/1 158/7/1 171/7/1
f 181/7/1 171/7/1 180/7/1
f 181/6/1 172/6/1 158/6/1
f 182/7/1 176/7/1 175/7/1
f 182/6/1 175/6/1 174/6/1
f 183/6/1 179/6/1 178/6/1
f 183/7/1 176/7/1 182/7/1
f 183/6/1 178/6/1 177/6/1
f 183/6/1 177/6/1 176/6/1
f 184/7/1 180/7/1 179/7/1
f 184/6/1 179/6/1 183/6/1
f 185/6/1 181/6/1 180/6/1
f 185/7/1 180/7/1 184/7/1
f 186/6/1 183/6/1 182/6/1
f 186/6/1 182/6/1 174/6/1
f 186/6/1 185/6/1 184/6/1
f 186/6/1 174/6/1 161/6/1
f 186/6/1 184/6/1 183/6/1
f 186/7/1 161/7/1 160/7/1
f 187/6/1 185/6/1 186/6/1
f 188/6/1 181/6/1 185/6/1
f 188/6/1 185/6/1 187/6/1
f 189/6/1 172/6/1 181/6/1
f 189/6/1 181/6/1 188/6/1
f 189/7/1 173/7/1 172/7/1
f 190/6/1 188/6/1 187/6/1
f 190/7/1 187/7/1 186/7/1
f 191/7/1 189/7/1 188/7/1
f 191/6/1 188/6/1 190/6/1
f 192/7/1 190/7/1 186/7/1
f 192/7/1 186/7/1 160/7/1
f 192/7/1 191/7/1 190/7/1
f 192/7/1 160/7/1 1/7/1
f 193/7/1 2/7/1 173/7/1
f 193/7/1 191/7/1 192/7/1
f 193/7/1 173/7/1 189/7/1
f 193/7/1 189/7/1 191/7/1
f 196/7/1 195/7/1 194/7/1
f 197/7/1 195/7/1 196/7/1
f 198/5/2 199/5/2 200/5/2
f 200/5/2 199/5/2 201/5/2
f 202/7/2 203/7/2 204/7/2
f 204/7/2 203/7/2 205/7/2
f 202/7/2 204/7/2 206/7/2
f 204/6/2 205/6/2 207/6/2
f 206/7/2 204/7/2 207/7/2
f 205/7/2 203/7/2 208/7/2
f 207/6/2 205/6/2 208/6/2
f 208/7/2 203/7/2 209/7/2
f 202/7/2 206/7/2 210/7/2
f 206/6/2 207/6/2 211/6/2
f 210/7/2 206/7/2 211/7/2
f 207/6/2 208/6/2 211/6/2
f 208/6/2 209/6/2 211/6/2
f 209/7/2 203/7/2 212/7/2
f 211/6/2 209/6/2 212/6/2
f 212/7/2 203/7/2 213/7/2
f 202/7/2 210/7/2 214/7/2
f 210/6/2 211/6/2 214/6/2
f 212/6/2 213/6/2 214/6/2
f 211/6/2 212/6/2 214/6/2
f 214/6/2 213/6/2 215/6/2
f 215/6/2 213/6/2 216/6/2
f 213/7/2 203/7/2 217/7/2
f 216/6/2 213/6/2 217/6/2
f 215/6/2 216/6/2 218/6/2
f 214/7/2 215/7/2 218/7/2
f 218/6/2 216/6/2 219/6/2
f 219/6/2 216/6/2 220/6/2
f 216/7/2 217/7/2 221/7/2
f 220/6/2 216/6/2 221/6/2
f 219/6/2 220/6/2 222/6/2
f 218/7/2 219/7/2 222/7/2
f 220/7/2 221/7/2 223/7/2
f 222/6/2 220/6/2 223/6/2
f 202/7/2 214/7/2 224/7/2
f 214/7/2 218/7/2 224/7/2
f 222/7/2 223/7/2 224/7/2
f 218/7/2 222/7/2 224/7/2
f 217/7/2 203/7/2 225/7/2
f 224/7/2 223/7/2 225/7/2
f 223/7/2 221/7/2 225/7/2
f 221/7/2 217/7/2 225/7/2
f 228/7/3 227/7/3 226/7/3
f 229/7/3 227/7/3 228/7/3
f 230/7/3 228/7/3 226/7/3
f 231/6/3 229/6/3 228/6/3
f 231/7/3 228/7/3 230/7/3
f 232/7/3 227/7/3 229/7/3
f 232/6/3 229/6/3 231/6/3
f 233/7/3 227/7/3 232/7/3
f 234/7/3 230/7/3 226/7/3
f 235/6/3 231/6/3 230/6/3
f 235/7/3 230/7/3 234/7/3
f 235/6/3 232/6/3 231/6/3
f 235/6/3 233/6/3 232/6/3
f 236/7/3 227/7/3 233/7/3
f 236/6/3 233/6/3 235/6/3
f 237/7/3 227/7/3 236/7/3
f 238/7/3 234/7/3 226/7/3
f 238/6/3 235/6/3 234/6/3
f 238/6/3 237/6/3 236/6/3
f 238/6/3 236/6/3 235/6/3
f 239/6/3 237/6/3 238/6/3
f 240/6/3 237/6/3 239/6/3
f 241/7/3 227/7/3 237/7/3
f 241/6/3 237/6/3 240/6/3
f 242/6/3 240/6/3 239/6/3
f 242/7/3 239/7/3 238/7/3
f 243/6/3 240/6/3 242/6/3
f 244/6/3 240/6/3 243/6/3
f 245/7/3 241/7/3 240/7/3
f 245/6/3 240/6/3 244/6/3
f 246/6/3 244/6/3 243/6/3
f 246/7/3 243/7/3 242/7/3
f 247/7/3 245/7/3 244/7/3
f 247/6/3 244/6/3 246/6/3
f 248/7/3 238/7/3 226/7/3
f 248/7/3 242/7/3 238/7/3
f 248/7/3 247/7/3 246/7/3
f 248/7/3 246/7/3 242/7/3
f 249/7/3 227/7/3 241/7/3
f 249/7/3 247/7/3 248/7/3
f 249/7/3 245/7/3 247/7/3
f 249/7/3 241/7/3 245/7/3
f 252/5/3 251/5/3 250/5/3
f 253/5/3 251/5/3 252/5/3
f 254/7/4 255/7/4 256/7/4
f 256/7/4 255/7/4 257/7/4
f 258/7/4 259/7/4 260/7/4
f 260/7/4 259/7/4 261/7/4
f 258/7/4 260/7/4 262/7/4
f 260/6/4 261/6/4 263/6/4
f 262/7/4 260/7/4 263/7/4
f 261/7/4 259/7/4 264/7/4
f 263/6/4 261/6/4 264/6/4
f 264/7/4 259/7/4 265/7/4
f 258/7/4 262/7/4 266/7/4
f 262/6/4 263/6/4 267/6/4
f 266/7/4 262/7/4 267/7/4
f 263/6/4 264/6/4 267/6/4
f 264/6/4 265/6/4 267/6/4
f 265/7/4 259/7/4 268/7/4
f 267/6/4 265/6/4 268/6/4
f 268/7/4 259/7/4 269/7/4
f 258/7/4 266/7/4 270/7/4
f 266/6/4 267/6/4 270/6/4
f 268/6/4 269/6/4 270/6/4
f 267/6/4 268/6/4 270/6/4
f 270/6/4 269/6/4 271/6/4
f 271/6/4 269/6/4 272/6/4
f 269/7/4 259/7/4 273/7/4
f 272/6/4 269/6/4 273/6/4
f 271/6/4 272/6/4 274/6/4
f 270/7/4 271/7/4 274/7/4
f 274/6/4 272/6/4 275/6/4
f 275/6/4 272/6/4 276/6/4
f 272/7/4 273/7/4 277/7/4
f 276/6/4 272/6/4 277/6/4
f 275/6/4 276/6/4 278/6/4
f 274/7/4 275/7/4 278/7/4
f 276/7/4 277/7/4 279/7/4
f 278/6/4 276/6/4 279/6/4
f 258/7/4 270/7/4 280/7/4
f 270/7/4 274/7/4 280/7/4
f 278/7/4 279/7/4 280/7/4
f 274/7/4 278/7/4 280/7/4
f 273/7/4 259/7/4 281/7/4
f 280/7/4 279/7/4 281/7/4
f 279/7/4 277/7/4 281/7/4
f 277/7/4 273/7/4 281/7/4
f 284/7/5 283/7/5 282/7/5
f 285/7/5 283/7/5 284/7/5
f 286/7/5 284/7/5 282/7/5
f 287/6/5 285/6/5 284/6/5
f 287/7/5 284/7/5 286/7/5
f 288/7/5 283/7/5 285/7/5
f 288/6/5 285/6/5 287/6/5
f 289/7/5 283/7/5 288/7/5
f 290/7/5 286/7/5 282/7/5
f 291/6/5 287/6/5 286/6/5
f 291/7/5 286/7/5 290/7/5
f 291/6/5 288/6/5 287/6/5
f 291/6/5 289/6/5 288/6/5
f 292/7/5 283/7/5 289/7/5
f 292/6/5 289/6/5 291/6/5
f 293/7/5 283/7/5 292/7/5
f 294/7/5 290/7/5 282/7/5
f 294/6/5 291/6/5 290/6/5
f 294/6/5 293/6/5 292/6/5
f 294/6/5 292/6/5 291/6/5
f 295/6/5 293/6/5 294/6/5
f 296/6/5 293/6/5 295/6/5
f 297/7/5 283/7/5 293/7/5
f 297/6/5 293/6/5 296/6/5
f 298/6/5 296/6/5 295/6/5
f 298/7/5 295/7/5 294/7/5
f 299/6/5 296/6/5 298/6/5
f 300/6/5 296/6/5 299/6/5
f 301/7/5 297/7/5 296/7/5
f 301/6/5 296/6/5 300/6/5
f 302/6/5 300/6/5 299/6/5
f 302/7/5 299/7/5 298/7/5
f 303/7/5 301/7/5 300/7/5
f 303/6/5 300/6/5 302/6/5
f 304/7/5 294/7/5 282/7/5
f 304/7/5 298/7/5 294/7/5
f 304/7/5 303/7/5 302/7/5
f 304/7/5 302/7/5 298/7/5
f 305/7/5 283/7/5 297/7/5
f 305/7/5 303/7/5 304/7/5
f 305/7/5 301/7/5 303/7/5
f 305/7/5 297/7/5 301/7/5
f 308/7/5 307/7/5 306/7/5
f 309/7/5 307/7/5 308/7/5
f 310/5/6 311/5/6 312/5/6
f 312/5/6 311/5/6 313/5/6
f 314/7/6 315/7/6 316/7/6
f 316/7/6 315/7/6 317/7/6
f 314/7/6 316/7/6 318/7/6
f 316/6/6 317/6/6 319/6/6
f 318/7/6 316/7/6 319/7/6
f 317/7/6 315/7/6 320/7/6
f 319/6/6 317/6/6 320/6/6
f 320/7/6 315/7/6 321/7/6
f 314/7/6 318/7/6 322/7/6
f 318/6/6 319/6/6 323/6/6
f 322/7/6 318/7/6 323/7/6
f 319/6/6 320/6/6 323/6/6
f 320/6/6 321/6/6 323/6/6
f 321/7/6 315/7/6 324/7/6
f 323/6/6 321/6/6 324/6/6
f 324/7/6 315/7/6 325/7/6
f 314/7/6 322/7/6 326/7/6
f 322/6/6 323/6/6 326/6/6
f 324/6/6 325/6/6 326/6/6
f 323/6/6 324/6/6 326/6/6
f 326/6/6 325/6/6 327/6/6
f 327/6/6 325/6/6 328/6/6
f 325/7/6 315/7/6 329/7/6
f 328/6/6 325/6/6 329/6/6
f 327/6/6 328/6/6 330/6/6
f 326/7/6 327/7/6 330/7/6
f 330/6/6 328/6/6 331/6/6
f 331/6/6 328/6/6 332/6/6
f 328/7/6 329/7/6 333/7/6
f 332/6/6 328/6/6 333/6/6
f 331/6/6 332/6/6 334/6/6
f 330/7/6 331/7/6 334/7/6
f 332/7/6 333/7/6 335/7/6
f 334/6/6 332/6/6 335/6/6
f 314/7/6 326/7/6 336/7/6
f 326/7/6 330/7/6 336/7/6
f 334/7/6 335/7/6 336/7/6
f 330/7/6 334/7/6 336/7/6
f 329/7/6 315/7/6 337/7/6
f 336/7/6 335/7/6 337/7/6
f 335/7/6 333/7/6 337/7/6
f 333/7/6 329/7/6 337/7/6
